<svg width="67" height="26" viewBox="0 0 67 26" fill="none" xmlns="http://www.w3.org/2000/svg">
<path d="M2.40002 2.99268C1.84774 2.99268 1.40002 3.44039 1.40002 3.99268C1.40002 4.54496 1.84774 4.99268 2.40002 4.99268V2.99268ZM4.69256 3.99268L5.65779 3.73126C5.53973 3.29536 5.14417 2.99268 4.69256 2.99268V3.99268ZM8.41793 17.7479L7.45271 18.0093C7.58298 18.4903 8.0475 18.802 8.54197 18.7402L8.41793 17.7479ZM19.8806 16.3151L20.0047 17.3073C20.4293 17.2543 20.7732 16.9368 20.8599 16.5177L19.8806 16.3151ZM21.6 8.00462L22.5793 8.20722C22.6402 7.91271 22.5654 7.60641 22.3755 7.37319C22.1856 7.13998 21.9008 7.00462 21.6 7.00462V8.00462ZM5.77913 8.00462L4.8139 8.26603L5.77913 8.00462ZM2.40002 4.99268H4.69256V2.99268H2.40002V4.99268ZM8.54197 18.7402L20.0047 17.3073L19.7566 15.3228L8.2939 16.7556L8.54197 18.7402ZM20.8599 16.5177L22.5793 8.20722L20.6208 7.80201L18.9014 16.1125L20.8599 16.5177ZM3.72733 4.25409L4.8139 8.26603L6.74435 7.7432L5.65779 3.73126L3.72733 4.25409ZM4.8139 8.26603L7.45271 18.0093L9.38316 17.4865L6.74435 7.7432L4.8139 8.26603ZM21.6 7.00462H5.77913V9.00462H21.6V7.00462ZM11 21.4999C11 21.7761 10.7762 21.9999 10.5 21.9999V23.9999C11.8807 23.9999 13 22.8807 13 21.4999H11ZM10.5 21.9999C10.2239 21.9999 10 21.7761 10 21.4999H8.00002C8.00002 22.8807 9.11931 23.9999 10.5 23.9999V21.9999ZM10 21.4999C10 21.2238 10.2239 20.9999 10.5 20.9999V18.9999C9.11931 18.9999 8.00002 20.1192 8.00002 21.4999H10ZM10.5 20.9999C10.7762 20.9999 11 21.2238 11 21.4999H13C13 20.1192 11.8807 18.9999 10.5 18.9999V20.9999ZM19 21.4999C19 21.7761 18.7762 21.9999 18.5 21.9999V23.9999C19.8807 23.9999 21 22.8807 21 21.4999H19ZM18.5 21.9999C18.2239 21.9999 18 21.7761 18 21.4999H16C16 22.8807 17.1193 23.9999 18.5 23.9999V21.9999ZM18 21.4999C18 21.2238 18.2239 20.9999 18.5 20.9999V18.9999C17.1193 18.9999 16 20.1192 16 21.4999H18ZM18.5 20.9999C18.7762 20.9999 19 21.2238 19 21.4999H21C21 20.1192 19.8807 18.9999 18.5 18.9999V20.9999Z" fill="black"/>
<path d="M40.8636 19.1705C39.9924 19.1705 39.2443 18.9792 38.6193 18.5966C37.9981 18.214 37.5189 17.6856 37.1818 17.0114C36.8485 16.3333 36.6818 15.553 36.6818 14.6705C36.6818 13.7841 36.8523 13.0019 37.1932 12.3239C37.5341 11.642 38.0152 11.1117 38.6364 10.733C39.2614 10.3504 40 10.1591 40.8523 10.1591C41.5606 10.1591 42.1875 10.2898 42.733 10.5511C43.2822 10.8087 43.7197 11.1742 44.0455 11.6477C44.3712 12.1174 44.5568 12.6667 44.6023 13.2955H42.6364C42.5568 12.875 42.3674 12.5246 42.0682 12.2443C41.7727 11.9602 41.3769 11.8182 40.8807 11.8182C40.4602 11.8182 40.0909 11.9318 39.7727 12.1591C39.4545 12.3826 39.2064 12.7045 39.0284 13.125C38.8542 13.5455 38.767 14.0492 38.767 14.6364C38.767 15.2311 38.8542 15.7424 39.0284 16.1705C39.2027 16.5947 39.447 16.9223 39.7614 17.1534C40.0795 17.3807 40.4527 17.4943 40.8807 17.4943C41.1837 17.4943 41.4545 17.4375 41.6932 17.3239C41.9356 17.2064 42.1383 17.0379 42.3011 16.8182C42.464 16.5985 42.5758 16.3314 42.6364 16.017H44.6023C44.553 16.6345 44.3712 17.1818 44.0568 17.6591C43.7424 18.1326 43.3144 18.5038 42.7727 18.7727C42.2311 19.0379 41.5947 19.1705 40.8636 19.1705ZM48.6226 19.1761C48.0695 19.1761 47.5714 19.0777 47.1282 18.8807C46.6888 18.6799 46.3404 18.3845 46.0828 17.9943C45.829 17.6042 45.7021 17.1231 45.7021 16.5511C45.7021 16.0587 45.793 15.6515 45.9748 15.3295C46.1566 15.0076 46.4048 14.75 46.7191 14.5568C47.0335 14.3636 47.3877 14.2178 47.7816 14.1193C48.1794 14.017 48.5904 13.9432 49.0146 13.8977C49.526 13.8447 49.9407 13.7973 50.2589 13.7557C50.5771 13.7102 50.8082 13.642 50.9521 13.5511C51.0998 13.4564 51.1737 13.3106 51.1737 13.1136V13.0795C51.1737 12.6515 51.0468 12.3201 50.793 12.0852C50.5392 11.8504 50.1737 11.733 49.6964 11.733C49.1926 11.733 48.793 11.8428 48.4976 12.0625C48.2059 12.2822 48.0089 12.5417 47.9066 12.8409L45.9862 12.5682C46.1377 12.0379 46.3877 11.5947 46.7362 11.2386C47.0847 10.8788 47.5108 10.6098 48.0146 10.4318C48.5184 10.25 49.0752 10.1591 49.6851 10.1591C50.1055 10.1591 50.5241 10.2083 50.9407 10.3068C51.3574 10.4053 51.7381 10.5682 52.0828 10.7955C52.4275 11.0189 52.704 11.3239 52.9123 11.7102C53.1245 12.0966 53.2305 12.5795 53.2305 13.1591V19H51.2532V17.8011H51.1851C51.0601 18.0436 50.8839 18.2708 50.6566 18.483C50.4332 18.6913 50.151 18.8598 49.8101 18.9886C49.4729 19.1136 49.0771 19.1761 48.6226 19.1761ZM49.1566 17.6648C49.5695 17.6648 49.9275 17.5833 50.2305 17.4205C50.5335 17.2538 50.7665 17.0341 50.9294 16.7614C51.096 16.4886 51.1794 16.1913 51.1794 15.8693V14.8409C51.115 14.8939 51.0051 14.9432 50.8498 14.9886C50.6983 15.0341 50.5279 15.0739 50.3385 15.108C50.1491 15.142 49.9616 15.1723 49.776 15.1989C49.5904 15.2254 49.4294 15.2481 49.293 15.267C48.9862 15.3087 48.7116 15.3769 48.4691 15.4716C48.2267 15.5663 48.0354 15.6989 47.8953 15.8693C47.7551 16.036 47.6851 16.2519 47.6851 16.517C47.6851 16.8958 47.8233 17.1818 48.0998 17.375C48.3763 17.5682 48.7286 17.6648 49.1566 17.6648ZM55.1187 19V10.2727H57.113V11.7273H57.2039C57.363 11.2235 57.6357 10.8352 58.0221 10.5625C58.4123 10.286 58.8573 10.1477 59.3573 10.1477C59.471 10.1477 59.5979 10.1534 59.738 10.1648C59.882 10.1723 60.0013 10.1856 60.096 10.2045V12.0966C60.0088 12.0663 59.8706 12.0398 59.6812 12.017C59.4956 11.9905 59.3157 11.9773 59.1414 11.9773C58.7664 11.9773 58.4293 12.0587 58.1301 12.2216C57.8346 12.3807 57.6016 12.6023 57.4312 12.8864C57.2607 13.1705 57.1755 13.4981 57.1755 13.8693V19H55.1187ZM66.1091 10.2727V11.8636H61.0921V10.2727H66.1091ZM62.3307 8.18182H64.3876V16.375C64.3876 16.6515 64.4292 16.8636 64.5126 17.0114C64.5997 17.1553 64.7133 17.2538 64.8535 17.3068C64.9936 17.3598 65.1489 17.3864 65.3194 17.3864C65.4482 17.3864 65.5656 17.3769 65.6716 17.358C65.7815 17.339 65.8648 17.322 65.9216 17.3068L66.2682 18.9148C66.1584 18.9527 66.0012 18.9943 65.7966 19.0398C65.5959 19.0852 65.3497 19.1117 65.058 19.1193C64.5429 19.1345 64.0788 19.0568 63.666 18.8864C63.2531 18.7121 62.9254 18.4432 62.683 18.0795C62.4444 17.7159 62.3269 17.2614 62.3307 16.7159V8.18182Z" fill="black"/>
</svg>
